<svg id="visual" viewBox="0 0 900 600" width="900" height="600" xmlns="http://www.w3.org/2000/svg" xmlns:xlink="http://www.w3.org/1999/xlink" version="1.1"><rect x="0" y="0" width="900" height="600" fill="#001220"></rect><defs><linearGradient id="grad1_0" x1="33.3%" y1="0%" x2="100%" y2="100%"><stop offset="20%" stop-color="#001220" stop-opacity="1"></stop><stop offset="80%" stop-color="#001220" stop-opacity="1"></stop></linearGradient></defs><defs><linearGradient id="grad2_0" x1="0%" y1="0%" x2="66.7%" y2="100%"><stop offset="20%" stop-color="#001220" stop-opacity="1"></stop><stop offset="80%" stop-color="#001220" stop-opacity="1"></stop></linearGradient></defs><g transform="translate(900, 0)"><path d="M0 486.7C-55.7 463.1 -111.4 439.4 -174.1 420.4C-236.8 401.3 -306.6 387 -344.2 344.2C-381.8 301.4 -387.2 230.1 -405.6 168C-424 105.9 -455.4 52.9 -486.7 0L0 0Z" fill="#0066FF"></path></g><g transform="translate(0, 600)"><path d="M0 -486.7C48.4 -448.6 96.8 -410.4 163.4 -394.5C230 -378.6 314.8 -385 344.2 -344.2C373.6 -303.3 347.6 -215.3 362.2 -150C376.7 -84.8 431.7 -42.4 486.7 0L0 0Z" fill="#0066FF"></path></g></svg>