<svg id="visual" viewBox="0 0 900 600" width="900" height="600" xmlns="http://www.w3.org/2000/svg" xmlns:xlink="http://www.w3.org/1999/xlink" version="1.1"><rect x="0" y="0" width="900" height="600" fill="#f5f5f5"></rect><path d="M0 452L21.5 457.3C43 462.7 86 473.3 128.8 480.8C171.7 488.3 214.3 492.7 257.2 495C300 497.3 343 497.7 385.8 492.2C428.7 486.7 471.3 475.3 514.2 459.2C557 443 600 422 642.8 428.7C685.7 435.3 728.3 469.7 771.2 487.7C814 505.7 857 507.3 878.5 508.2L900 509L900 601L878.5 601C857 601 814 601 771.2 601C728.3 601 685.7 601 642.8 601C600 601 557 601 514.2 601C471.3 601 428.7 601 385.8 601C343 601 300 601 257.2 601C214.3 601 171.7 601 128.8 601C86 601 43 601 21.5 601L0 601Z" fill="#1976d2" stroke-linecap="round" stroke-linejoin="miter"></path></svg>